HIERARCHY
ROOT Hips
{
  OFFSET 0.000 67.070 0.000
  CHANNELS 6 Xposition Yposition Zposition Zrotation Xrotation Yrotation
  JOINT LeftUpLeg
  {
    OFFSET 7.798 0.599 3.456
    CHANNELS 6 Xposition Yposition Zposition Zrotation Xrotation Yrotation
    JOINT LeftLeg
    {
      OFFSET 0.000 -34.232 0.000
      CHANNELS 6 Xposition Yposition Zposition Zrotation Xrotation Yrotation
      JOINT LeftFoot
      {
        OFFSET 0.000 -33.436 0.000
        CHANNELS 6 Xposition Yposition Zposition Zrotation Xrotation Yrotation
        End Site
        {
          OFFSET 0.000 0.000 9.668
        }
      }
    }
  }
  JOINT RightUpLeg
  {
    OFFSET -7.798 0.599 3.456
    CHANNELS 6 Xposition Yposition Zposition Zrotation Xrotation Yrotation
    JOINT RightLeg
    {
      OFFSET 0.000 -34.232 0.000
      CHANNELS 6 Xposition Yposition Zposition Zrotation Xrotation Yrotation
      JOINT RightFoot
      {
        OFFSET 0.000 -33.436 0.000
        CHANNELS 6 Xposition Yposition Zposition Zrotation Xrotation Yrotation
        End Site
        {
          OFFSET 0.000 0.000 9.668
        }
      }
    }
  }
  JOINT Spine
  {
    OFFSET 0.000 32.222 0.000
    CHANNELS 6 Xposition Yposition Zposition Zrotation Xrotation Yrotation
    JOINT Spine1
    {
      OFFSET 0.000 23.632 0.000
      CHANNELS 6 Xposition Yposition Zposition Zrotation Xrotation Yrotation
      JOINT LeftShoulder
      {
        OFFSET 1.707 -0.483 0.166
        CHANNELS 6 Xposition Yposition Zposition Zrotation Xrotation Yrotation
        JOINT LeftArm
        {
          OFFSET 15.748 0.000 0.000
          CHANNELS 6 Xposition Yposition Zposition Zrotation Xrotation Yrotation
          JOINT LeftForeArm
          {
            OFFSET 25.328 0.000 0.000
            CHANNELS 6 Xposition Yposition Zposition Zrotation Xrotation Yrotation
            JOINT LeftHand
            {
              OFFSET 22.735 0.000 0.000
              CHANNELS 6 Xposition Yposition Zposition Zrotation Xrotation Yrotation
              JOINT LeftHandThumb1
              {
                OFFSET 4.877 -1.044 3.608
                CHANNELS 6 Xposition Yposition Zposition Zrotation Xrotation Yrotation
                JOINT LeftHandThumb2
                {
                  OFFSET 2.665 0.000 0.000
                  CHANNELS 6 Xposition Yposition Zposition Zrotation Xrotation Yrotation
                  JOINT LeftHandThumb3
                  {
                    OFFSET 2.543 -0.000 -0.000
                    CHANNELS 6 Xposition Yposition Zposition Zrotation Xrotation Yrotation
                    End Site
                    {
                      OFFSET 2.667 0.000 0.000
                    }
                  }
                }
              }
              JOINT LeftHandIndex1
              {
                OFFSET 9.232 -0.301 2.144
                CHANNELS 6 Xposition Yposition Zposition Zrotation Xrotation Yrotation
                JOINT LeftHandIndex2
                {
                  OFFSET 4.225 -0.000 -0.000
                  CHANNELS 6 Xposition Yposition Zposition Zrotation Xrotation Yrotation
                  JOINT LeftHandIndex3
                  {
                    OFFSET 2.654 0.000 0.000
                    CHANNELS 6 Xposition Yposition Zposition Zrotation Xrotation Yrotation
                    End Site
                    {
                      OFFSET 1.958 -0.000 -0.000
                    }
                  }
                }
              }
              JOINT LeftHandMiddle1
              {
                OFFSET 8.920 0.000 0.000
                CHANNELS 6 Xposition Yposition Zposition Zrotation Xrotation Yrotation
                JOINT LeftHandMiddle2
                {
                  OFFSET 4.863 -0.000 -0.000
                  CHANNELS 6 Xposition Yposition Zposition Zrotation Xrotation Yrotation
                  JOINT LeftHandMiddle3
                  {
                    OFFSET 2.765 0.000 0.000
                    CHANNELS 6 Xposition Yposition Zposition Zrotation Xrotation Yrotation
                    End Site
                    {
                      OFFSET 2.006 -0.000 0.000
                    }
                  }
                }
              }
              JOINT LeftHandRing1
              {
                OFFSET 8.689 -0.126 -2.087
                CHANNELS 6 Xposition Yposition Zposition Zrotation Xrotation Yrotation
                JOINT LeftHandRing2
                {
                  OFFSET 4.538 -0.000 0.000
                  CHANNELS 6 Xposition Yposition Zposition Zrotation Xrotation Yrotation
                  JOINT LeftHandRing3
                  {
                    OFFSET 2.305 0.000 0.000
                    CHANNELS 6 Xposition Yposition Zposition Zrotation Xrotation Yrotation
                    End Site
                    {
                      OFFSET 1.923 0.000 0.000
                    }
                  }
                }
              }
              JOINT LeftHandPinky1
              {
                OFFSET 8.391 -0.817 -3.758
                CHANNELS 6 Xposition Yposition Zposition Zrotation Xrotation Yrotation
                JOINT LeftHandPinky2
                {
                  OFFSET 3.044 0.000 0.000
                  CHANNELS 6 Xposition Yposition Zposition Zrotation Xrotation Yrotation
                  JOINT LeftHandPinky3
                  {
                    OFFSET 1.975 -0.000 -0.000
                    CHANNELS 6 Xposition Yposition Zposition Zrotation Xrotation Yrotation
                    End Site
                    {
                      OFFSET 1.667 0.000 0.000
                    }
                  }
                }
              }
            }
          }
        }
      }
      JOINT RightShoulder
      {
        OFFSET -1.707 -0.483 0.166
        CHANNELS 6 Xposition Yposition Zposition Zrotation Xrotation Yrotation
        JOINT RightArm
        {
          OFFSET -15.748 0.000 0.000
          CHANNELS 6 Xposition Yposition Zposition Zrotation Xrotation Yrotation
          JOINT RightForeArm
          {
            OFFSET -25.328 0.000 0.000
            CHANNELS 6 Xposition Yposition Zposition Zrotation Xrotation Yrotation
            JOINT RightHand
            {
              OFFSET -22.735 0.000 0.000
              CHANNELS 6 Xposition Yposition Zposition Zrotation Xrotation Yrotation
              JOINT RightHandThumb1
              {
                OFFSET -4.877 -1.044 3.608
                CHANNELS 6 Xposition Yposition Zposition Zrotation Xrotation Yrotation
                JOINT RightHandThumb2
                {
                  OFFSET -2.665 0.000 -0.000
                  CHANNELS 6 Xposition Yposition Zposition Zrotation Xrotation Yrotation
                  JOINT RightHandThumb3
                  {
                    OFFSET -2.543 0.000 0.000
                    CHANNELS 6 Xposition Yposition Zposition Zrotation Xrotation Yrotation
                    End Site
                    {
                      OFFSET -2.667 -0.000 -0.000
                    }
                  }
                }
              }
              JOINT RightHandIndex1
              {
                OFFSET -9.232 -0.301 2.144
                CHANNELS 6 Xposition Yposition Zposition Zrotation Xrotation Yrotation
                JOINT RightHandIndex2
                {
                  OFFSET -4.225 0.000 0.000
                  CHANNELS 6 Xposition Yposition Zposition Zrotation Xrotation Yrotation
                  JOINT RightHandIndex3
                  {
                    OFFSET -2.654 0.000 0.000
                    CHANNELS 6 Xposition Yposition Zposition Zrotation Xrotation Yrotation
                    End Site
                    {
                      OFFSET -1.958 -0.000 -0.000
                    }
                  }
                }
              }
              JOINT RightHandMiddle1
              {
                OFFSET -8.920 -0.000 -0.000
                CHANNELS 6 Xposition Yposition Zposition Zrotation Xrotation Yrotation
                JOINT RightHandMiddle2
                {
                  OFFSET -4.863 0.000 0.000
                  CHANNELS 6 Xposition Yposition Zposition Zrotation Xrotation Yrotation
                  JOINT RightHandMiddle3
                  {
                    OFFSET -2.765 0.000 -0.000
                    CHANNELS 6 Xposition Yposition Zposition Zrotation Xrotation Yrotation
                    End Site
                    {
                      OFFSET -2.006 0.000 0.000
                    }
                  }
                }
              }
              JOINT RightHandRing1
              {
                OFFSET -8.689 -0.126 -2.087
                CHANNELS 6 Xposition Yposition Zposition Zrotation Xrotation Yrotation
                JOINT RightHandRing2
                {
                  OFFSET -4.538 0.000 0.000
                  CHANNELS 6 Xposition Yposition Zposition Zrotation Xrotation Yrotation
                  JOINT RightHandRing3
                  {
                    OFFSET -2.305 0.000 0.000
                    CHANNELS 6 Xposition Yposition Zposition Zrotation Xrotation Yrotation
                    End Site
                    {
                      OFFSET -1.923 0.000 0.000
                    }
                  }
                }
              }
              JOINT RightHandPinky1
              {
                OFFSET -8.391 -0.817 -3.758
                CHANNELS 6 Xposition Yposition Zposition Zrotation Xrotation Yrotation
                JOINT RightHandPinky2
                {
                  OFFSET -3.044 -0.000 -0.000
                  CHANNELS 6 Xposition Yposition Zposition Zrotation Xrotation Yrotation
                  JOINT RightHandPinky3
                  {
                    OFFSET -1.975 0.000 -0.000
                    CHANNELS 6 Xposition Yposition Zposition Zrotation Xrotation Yrotation
                    End Site
                    {
                      OFFSET -1.667 0.000 0.000
                    }
                  }
                }
              }
            }
          }
        }
      }
      JOINT Neck
      {
        OFFSET 0.000 0.774 0.000
        CHANNELS 6 Xposition Yposition Zposition Zrotation Xrotation Yrotation
        JOINT Head
        {
          OFFSET 0.000 7.035 0.000
          CHANNELS 6 Xposition Yposition Zposition Zrotation Xrotation Yrotation
          End Site
          {
            OFFSET 0.000 16.085 0.000
          }
        }
      }
    }
  }
}
MOTION
Frames:	4
Frame Time:	0.033333
9.43378 75.20185 -218.30627 -1.31298 -0.49836 -6.64471 8.18858 0.63005 3.55105 10.38610 2.62053 12.62076 0.00358 -34.19338 -0.00279 -0.42103 9.63770 5.73458 -0.00048 -35.38420 -0.00036 -0.53713 22.83821 1.32265 -7.70124 0.35197 3.54797 -4.90076 -0.33364 -15.20586 -0.00146 -33.88335 -0.00506 -1.43764 10.62651 -0.47282 0.00883 -34.69822 -0.00185 -0.45391 24.87346 1.07239 -0.00274 32.06925 -0.00258 -0.15920 1.71164 0.42039 -0.00865 23.44374 -0.00572 -0.10579 2.29558 0.46740 1.64739 -0.39520 0.16951 -13.42844 1.35237 -5.63979 15.26192 -0.00265 0.00268 -63.71782 4.46555 -6.43032 24.58160 0.00322 0.00094 -12.80292 1.74394 -14.47306 22.40653 0.00974 -0.01097 -13.87679 -0.82226 7.56651 4.87700 -1.04399 3.60801 -38.84870 -18.17666 4.02960 2.66501 0.00000 0.00000 0.00000 -0.00000 5.00000 2.54300 -0.00001 -0.00005 0.00000 -0.00000 60.00000 9.23200 -0.30100 2.14401 2.00000 -0.00000 -0.00000 4.22500 -0.00001 -0.00004 2.00000 0.00000 -0.00000 2.65399 0.00000 0.00000 2.00000 -0.00000 0.00000 8.92000 0.00001 0.00001 -80.00000 -0.00000 0.00000 4.86301 -0.00001 -0.00001 -90.00000 0.00000 0.00000 2.76501 0.00000 0.00002 -70.00000 -0.00000 0.00000 8.68900 -0.12600 -2.08701 -80.00000 -0.00000 0.00000 4.53800 -0.00001 0.00004 -90.00000 0.00000 0.00000 2.30500 0.00000 0.00002 -70.00000 -0.00000 0.00000 8.39100 -0.81700 -3.75803 2.00000 -0.00000 -0.00000 3.04399 0.00001 0.00002 2.00000 0.00000 -0.00000 1.97500 -0.00001 -0.00002 2.00000 -0.00000 0.00000 -1.77584 -0.51601 0.16951 16.10872 1.48892 5.14422 -16.74801 -0.00176 -0.00219 69.23560 3.02976 7.39863 -25.53370 0.00901 -0.00779 3.26836 -2.97104 14.20086 -21.56285 -0.01946 -0.00238 21.67873 8.84350 -12.68362 -4.87700 -1.04400 3.60799 40.90539 11.75460 -3.91034 -2.66500 0.00000 -0.00001 -0.00000 -0.00000 -5.00000 -2.54299 0.00001 0.00001 0.00001 -0.00000 -60.00000 -9.23200 -0.30100 2.14398 -2.00000 0.00000 -0.00000 -4.22500 0.00000 0.00000 -2.00000 0.00000 -0.00000 -2.65401 0.00001 0.00004 -2.00000 0.00000 -0.00000 -8.92000 -0.00001 -0.00002 80.00000 -0.00000 0.00000 -4.86299 0.00001 0.00001 90.00000 -0.00000 0.00001 -2.76501 0.00001 -0.00001 70.00000 -0.00000 0.00001 -8.68900 -0.12600 -2.08702 80.00000 -0.00000 0.00000 -4.53799 0.00001 0.00002 90.00000 -0.00000 0.00001 -2.30500 0.00001 0.00000 70.00000 -0.00000 0.00001 -8.39100 -0.81701 -3.75801 -2.00000 0.00000 -0.00000 -3.04400 -0.00001 -0.00004 -2.00000 0.00000 -0.00000 -1.97500 0.00000 -0.00001 -2.00000 0.00000 -0.00000 0.00000 0.77376 -0.00002 -0.00000 0.00001 0.00000 0.00409 6.86886 -0.00737 11.07578 12.64908 -6.53861 
9.47408 75.19437 -218.35567 -1.29468 -0.51494 -6.58373 8.18858 0.63005 3.55105 10.32963 2.57614 12.58448 0.00358 -34.17824 -0.00279 -0.40662 9.63694 5.78070 -0.00048 -35.38420 -0.00036 -0.74097 23.52841 1.79628 -7.70571 0.35197 3.54797 -4.95748 -0.37067 -15.20141 -0.00146 -33.89006 -0.00506 -1.41556 10.66322 -0.46877 0.00883 -34.68396 -0.00185 -0.32579 24.94403 0.76582 -0.00274 32.04838 -0.00258 -0.15014 1.73337 0.46161 -0.00865 23.43098 -0.00572 -0.10744 2.29557 0.50865 1.64739 -0.39520 0.16951 -13.30377 1.33502 -5.62023 15.26192 -0.00265 0.00268 -63.90786 4.56213 -6.51102 24.59845 0.00322 0.00094 -12.79797 1.70480 -14.41375 22.49214 0.00974 -0.01097 -14.03802 -0.61417 7.76133 4.87700 -1.04399 3.60801 -38.84870 -18.17666 4.02960 2.66501 0.00000 0.00000 0.00000 -0.00000 5.00000 2.54300 -0.00001 -0.00005 0.00000 -0.00000 60.00000 9.23200 -0.30100 2.14401 2.00000 -0.00000 -0.00000 4.22500 -0.00001 -0.00004 2.00000 0.00000 -0.00000 2.65399 0.00000 0.00000 2.00000 -0.00000 0.00000 8.92000 0.00001 0.00001 -80.00000 -0.00000 0.00000 4.86301 -0.00001 -0.00001 -90.00000 0.00000 0.00000 2.76501 0.00000 0.00002 -70.00000 -0.00000 0.00000 8.68900 -0.12600 -2.08701 -80.00000 -0.00000 0.00000 4.53800 -0.00001 0.00004 -90.00000 0.00000 0.00000 2.30500 0.00000 0.00002 -70.00000 -0.00000 0.00000 8.39100 -0.81700 -3.75803 2.00000 -0.00000 -0.00000 3.04399 0.00001 0.00002 2.00000 0.00000 -0.00000 1.97500 -0.00001 -0.00002 2.00000 -0.00000 0.00000 -1.77584 -0.51601 0.16951 15.99459 1.47366 5.13013 -16.74035 -0.00176 -0.00219 69.30658 2.98144 7.41379 -25.51543 0.00901 -0.00779 3.35471 -2.96463 14.19278 -21.54673 -0.01946 -0.00238 21.47030 8.66530 -12.63389 -4.87700 -1.04400 3.60799 40.90539 11.75460 -3.91034 -2.66500 0.00000 -0.00001 -0.00000 -0.00000 -5.00000 -2.54299 0.00001 0.00001 0.00001 -0.00000 -60.00000 -9.23200 -0.30100 2.14398 -2.00000 0.00000 -0.00000 -4.22500 0.00000 0.00000 -2.00000 0.00000 -0.00000 -2.65401 0.00001 0.00004 -2.00000 0.00000 -0.00000 -8.92000 -0.00001 -0.00002 80.00000 -0.00000 0.00000 -4.86299 0.00001 0.00001 90.00000 -0.00000 0.00001 -2.76501 0.00001 -0.00001 70.00000 -0.00000 0.00001 -8.68900 -0.12600 -2.08702 80.00000 -0.00000 0.00000 -4.53799 0.00001 0.00002 90.00000 -0.00000 0.00001 -2.30500 0.00001 0.00000 70.00000 -0.00000 0.00001 -8.39100 -0.81701 -3.75801 -2.00000 0.00000 -0.00000 -3.04400 -0.00001 -0.00004 -2.00000 0.00000 -0.00000 -1.97500 0.00000 -0.00001 -2.00000 0.00000 -0.00000 0.00000 0.77376 -0.00002 -0.00000 0.00001 0.00000 0.00409 6.86886 -0.00737 10.86063 12.96028 -6.78964 
9.52427 75.18351 -218.41893 -1.25806 -0.51218 -6.45701 8.18335 0.63005 3.55105 10.25634 2.48237 12.48969 0.00358 -34.15306 -0.00279 -0.40063 9.63945 5.87421 -0.00048 -35.38420 -0.00036 -0.89369 24.01769 2.13666 -7.71689 0.35197 3.54797 -5.02757 -0.42468 -15.26103 -0.00146 -33.90424 -0.00506 -1.42498 10.75737 -0.46180 0.00883 -34.72221 -0.00185 -0.32648 24.46599 0.78151 -0.00274 32.03144 -0.00258 -0.14784 1.75011 0.44961 -0.00865 23.42220 -0.00572 -0.10695 2.29557 0.49642 1.64739 -0.39520 0.16951 -13.19876 1.32739 -5.63383 15.26511 -0.00265 0.00268 -64.08601 4.53921 -6.50133 24.65402 0.00322 0.00094 -12.76812 1.72716 -14.43813 22.46992 0.00974 -0.01097 -14.30054 -0.35937 7.99453 4.87700 -1.04399 3.60801 -38.84870 -18.17666 4.02960 2.66501 0.00000 0.00000 0.00000 -0.00000 5.00000 2.54300 -0.00001 -0.00005 0.00000 -0.00000 60.00000 9.23200 -0.30100 2.14401 2.00000 -0.00000 -0.00000 4.22500 -0.00001 -0.00004 2.00000 0.00000 -0.00000 2.65399 0.00000 0.00000 2.00000 -0.00000 0.00000 8.92000 0.00001 0.00001 -80.00000 -0.00000 0.00000 4.86301 -0.00001 -0.00001 -90.00000 0.00000 0.00000 2.76501 0.00000 0.00002 -70.00000 -0.00000 0.00000 8.68900 -0.12600 -2.08701 -80.00000 -0.00000 0.00000 4.53800 -0.00001 0.00004 -90.00000 0.00000 0.00000 2.30500 0.00000 0.00002 -70.00000 -0.00000 0.00000 8.39100 -0.81700 -3.75803 2.00000 -0.00000 -0.00000 3.04399 0.00001 0.00002 2.00000 0.00000 -0.00000 1.97500 -0.00001 -0.00002 2.00000 -0.00000 0.00000 -1.77584 -0.51183 0.16951 15.88286 1.46900 5.15138 -16.71600 -0.00176 -0.00219 69.34294 2.94015 7.42700 -25.50845 0.00901 -0.00779 3.49566 -2.94316 14.16320 -21.58761 -0.01946 -0.00238 21.18664 8.49134 -12.71470 -4.87700 -1.04400 3.60799 40.90539 11.75460 -3.91034 -2.66500 0.00000 -0.00001 -0.00000 -0.00000 -5.00000 -2.54299 0.00001 0.00001 0.00001 -0.00000 -60.00000 -9.23200 -0.30100 2.14398 -2.00000 0.00000 -0.00000 -4.22500 0.00000 0.00000 -2.00000 0.00000 -0.00000 -2.65401 0.00001 0.00004 -2.00000 0.00000 -0.00000 -8.92000 -0.00001 -0.00002 80.00000 -0.00000 0.00000 -4.86299 0.00001 0.00001 90.00000 -0.00000 0.00001 -2.76501 0.00001 -0.00001 70.00000 -0.00000 0.00001 -8.68900 -0.12600 -2.08702 80.00000 -0.00000 0.00000 -4.53799 0.00001 0.00002 90.00000 -0.00000 0.00001 -2.30500 0.00001 0.00000 70.00000 -0.00000 0.00001 -8.39100 -0.81701 -3.75801 -2.00000 0.00000 -0.00000 -3.04400 -0.00001 -0.00004 -2.00000 0.00000 -0.00000 -1.97500 0.00000 -0.00001 -2.00000 0.00000 -0.00000 0.00000 0.77376 -0.00002 -0.00000 0.00001 0.00000 0.00409 6.86886 -0.00737 10.61537 13.24331 -7.13265 
9.57813 75.17589 -218.47986 -1.21375 -0.50015 -6.39603 8.17660 0.63005 3.55105 10.17873 2.46759 12.51083 0.00358 -34.12217 -0.00279 -0.42831 9.51943 5.85458 -0.00048 -35.39444 -0.00036 -0.69503 23.93552 1.65242 -7.71624 0.35581 3.54797 -5.10741 -0.48542 -15.22773 -0.00146 -33.93327 -0.00506 -1.41523 10.75251 -0.44415 0.00883 -34.74588 -0.00185 -0.41884 24.37739 1.00789 -0.00274 32.01623 -0.00258 -0.15210 1.76244 0.47928 -0.00865 23.41531 -0.00572 -0.11153 2.29466 0.52532 1.64739 -0.39520 0.16951 -13.11361 1.31028 -5.59801 15.28286 -0.00265 0.00268 -64.26578 4.61661 -6.53891 24.69547 0.00322 0.00094 -12.70796 1.70001 -14.32905 22.57598 0.00974 -0.01097 -14.77604 0.13077 7.93135 4.87700 -1.04399 3.60801 -38.84870 -18.17666 4.02960 2.66501 0.00000 0.00000 0.00000 -0.00000 5.00000 2.54300 -0.00001 -0.00005 0.00000 -0.00000 60.00000 9.23200 -0.30100 2.14401 2.00000 -0.00000 -0.00000 4.22500 -0.00001 -0.00004 2.00000 0.00000 -0.00000 2.65399 0.00000 0.00000 2.00000 -0.00000 0.00000 8.92000 0.00001 0.00001 -80.00000 -0.00000 0.00000 4.86301 -0.00001 -0.00001 -90.00000 0.00000 0.00000 2.76501 0.00000 0.00002 -70.00000 -0.00000 0.00000 8.68900 -0.12600 -2.08701 -80.00000 -0.00000 0.00000 4.53800 -0.00001 0.00004 -90.00000 0.00000 0.00000 2.30500 0.00000 0.00002 -70.00000 -0.00000 0.00000 8.39100 -0.81700 -3.75803 2.00000 -0.00000 -0.00000 3.04399 0.00001 0.00002 2.00000 0.00000 -0.00000 1.97500 -0.00001 -0.00002 2.00000 -0.00000 0.00000 -1.77584 -0.50839 0.16951 15.79325 1.45508 5.13254 -16.69051 -0.00176 -0.00219 69.35986 2.93305 7.43491 -25.50387 0.00901 -0.00779 3.63824 -2.90748 14.14671 -21.64361 -0.01946 -0.00238 21.15838 8.56849 -12.61338 -4.87700 -1.04400 3.60799 40.90539 11.75460 -3.91034 -2.66500 0.00000 -0.00001 -0.00000 -0.00000 -5.00000 -2.54299 0.00001 0.00001 0.00001 -0.00000 -60.00000 -9.23200 -0.30100 2.14398 -2.00000 0.00000 -0.00000 -4.22500 0.00000 0.00000 -2.00000 0.00000 -0.00000 -2.65401 0.00001 0.00004 -2.00000 0.00000 -0.00000 -8.92000 -0.00001 -0.00002 80.00000 -0.00000 0.00000 -4.86299 0.00001 0.00001 90.00000 -0.00000 0.00001 -2.76501 0.00001 -0.00001 70.00000 -0.00000 0.00001 -8.68900 -0.12600 -2.08702 80.00000 -0.00000 0.00000 -4.53799 0.00001 0.00002 90.00000 -0.00000 0.00001 -2.30500 0.00001 0.00000 70.00000 -0.00000 0.00001 -8.39100 -0.81701 -3.75801 -2.00000 0.00000 -0.00000 -3.04400 -0.00001 -0.00004 -2.00000 0.00000 -0.00000 -1.97500 0.00000 -0.00001 -2.00000 0.00000 -0.00000 0.00000 0.77376 -0.00002 -0.00000 0.00001 0.00000 0.00409 6.86886 -0.00737 10.33944 13.44389 -7.56983 
